# xmcd CD database file
#
# Track frame offsets:
#	150
#	19018
#	34845
#	52319
#	69044
#	85680
#	104262
#	120825
#	138609
#	155749
#	171155
#
# Disc length: 2508 seconds
#
# Revision: 0
# Processed by: cddbd v1.5.2PL0 Copyright (c) Steve Scherf et al.
# Submitted via: CDex 1.40Release
#
DISCID=8b09ca0b
DTITLE=Rhett Akins - People Like Me
DYEAR=2007
DGENRE=Country
TTITLE0=Kiss My Country Ass
TTITLE1=I Love Women (My Mama Can't Stand)
TTITLE2=If Heaven (Wasn't So Far Away)
TTITLE3=Trouble With A Woman
TTITLE4=People Like Me
TTITLE5=Old Bird Dog
TTITLE6=Must Be Livin' Right
TTITLE7=Something I Gotta Have
TTITLE8=If That Don't Get You
TTITLE9=Something's Gonna Kill Me
TTITLE10=Friday Night In Dixie
EXTD=YEAR: 2007 ID3G: 2
EXTT0=
EXTT1=
EXTT2=
EXTT3=
EXTT4=
EXTT5=
EXTT6=
EXTT7=
EXTT8=
EXTT9=
EXTT10=
PLAYORDER=
